<svg width="16" height="16" viewBox="0 0 16 16" fill="none" xmlns="http://www.w3.org/2000/svg">
<g id="Icon">
<path id="Path" d="M13.6 3.79999V7.99999H2.40002" stroke="#E96F45" stroke-width="0.98" stroke-linecap="round" stroke-linejoin="round"/>
<path id="Path_2" d="M8.00001 3.79999V7.99999V12.2" stroke="#E96F45" stroke-width="0.98" stroke-linecap="round" stroke-linejoin="round"/>
<path id="Path_3" d="M2.39998 3.79999V7.99999V12.2" stroke="#E96F45" stroke-width="0.98" stroke-linecap="round" stroke-linejoin="round"/>
<path id="Path_4" d="M15 2.4C15 3.17318 14.3732 3.8 13.6 3.8C12.8268 3.8 12.2 3.17318 12.2 2.4C12.2 1.6268 12.8268 1 13.6 1C14.3732 1 15 1.6268 15 2.4Z" stroke="#E96F45" stroke-width="0.98" stroke-linecap="round" stroke-linejoin="round"/>
<path id="Path_5" d="M9.39998 2.4C9.39998 3.17318 8.77316 3.8 7.99998 3.8C7.22679 3.8 6.59998 3.17318 6.59998 2.4C6.59998 1.6268 7.22679 1 7.99998 1C8.77316 1 9.39998 1.6268 9.39998 2.4Z" stroke="#E96F45" stroke-width="0.98" stroke-linecap="round" stroke-linejoin="round"/>
<path id="Path_6" d="M3.8 2.4C3.8 3.17318 3.17318 3.8 2.4 3.8C1.6268 3.8 1 3.17318 1 2.4C1 1.6268 1.6268 1 2.4 1C3.17318 1 3.8 1.6268 3.8 2.4Z" stroke="#E96F45" stroke-width="0.98" stroke-linecap="round" stroke-linejoin="round"/>
<path id="Path_7" d="M9.39998 13.6C9.39998 14.3732 8.77316 15 7.99998 15C7.22679 15 6.59998 14.3732 6.59998 13.6C6.59998 12.8268 7.22679 12.2 7.99998 12.2C8.77316 12.2 9.39998 12.8268 9.39998 13.6Z" stroke="#E96F45" stroke-width="0.98" stroke-linecap="round" stroke-linejoin="round"/>
<path id="Path_8" d="M3.8 13.6C3.8 14.3732 3.17318 15 2.4 15C1.6268 15 1 14.3732 1 13.6C1 12.8268 1.6268 12.2 2.4 12.2C3.17318 12.2 3.8 12.8268 3.8 13.6Z" stroke="#E96F45" stroke-width="0.98" stroke-linecap="round" stroke-linejoin="round"/>
</g>
</svg>
