<svg width="14" height="14" viewBox="0 0 14 14" fill="none" xmlns="http://www.w3.org/2000/svg">
<g id="User">
<path id="Union" fill-rule="evenodd" clip-rule="evenodd" d="M5.16669 4.08333C5.16669 3.07081 5.9875 2.25 7.00002 2.25C8.01254 2.25 8.83335 3.07081 8.83335 4.08333C8.83335 5.09586 8.01254 5.91667 7.00002 5.91667C5.9875 5.91667 5.16669 5.09586 5.16669 4.08333ZM7.00002 1.25C5.43521 1.25 4.16669 2.51853 4.16669 4.08333C4.16669 5.64814 5.43521 6.91667 7.00002 6.91667C8.56483 6.91667 9.83335 5.64814 9.83335 4.08333C9.83335 2.51853 8.56483 1.25 7.00002 1.25ZM3.41669 11.0833C3.41669 10.0708 4.2375 9.25 5.25002 9.25H8.75002C9.76254 9.25 10.5834 10.0708 10.5834 11.0833C10.5834 11.4515 10.2849 11.75 9.91669 11.75H4.08335C3.71516 11.75 3.41669 11.4515 3.41669 11.0833ZM9.91669 12.75C10.8372 12.75 11.5834 12.0038 11.5834 11.0833C11.5834 9.51853 10.3148 8.25 8.75002 8.25H5.25002C3.68521 8.25 2.41669 9.51853 2.41669 11.0833C2.41669 12.0038 3.16288 12.75 4.08335 12.75H9.91669Z" fill="#E96F45"/>
</g>
</svg>
